<svg xmlns="http://www.w3.org/2000/svg" viewBox="0 0 640 720" role="img" aria-labelledby="t"><title id="t">Illustrazione di un allineatore trasparente</title><defs><linearGradient id="bg" x1="0" y1="0" x2="1" y2="1"><stop offset="0" stop-color="#e8f6f2"/><stop offset="1" stop-color="#c9ece3"/></linearGradient><linearGradient id="tooth" x1="0" y1="0" x2="0" y2="1"><stop offset="0" stop-color="#ffffff"/><stop offset="1" stop-color="#edf2f5"/></linearGradient><filter id="sh" x="-20%" y="-20%" width="140%" height="140%"><feDropShadow dx="0" dy="12" stdDeviation="16" flood-color="#13213c" flood-opacity=".16"/></filter></defs><rect width="640" height="720" rx="40" fill="url(#bg)"/><circle cx="560" cy="90" r="130" fill="#fff" opacity=".45"/><circle cx="70" cy="660" r="160" fill="#fff" opacity=".35"/><g filter="url(#sh)"><rect x="497.2" y="367.4" width="68.0" height="64.0" rx="26.7" fill="url(#tooth)" stroke="#d3dde5" stroke-width="2" transform="rotate(-98.6 531.2 399.4)"/><rect x="486.4" y="313.8" width="63.1" height="61.5" rx="25.6" fill="url(#tooth)" stroke="#d3dde5" stroke-width="2" transform="rotate(-108.7 517.9 344.6)"/><rect x="466.7" y="264.9" width="58.2" height="59.1" rx="24.2" fill="url(#tooth)" stroke="#d3dde5" stroke-width="2" transform="rotate(-119.3 495.8 294.5)"/><rect x="439.0" y="223.1" width="53.2" height="56.6" rx="22.2" fill="url(#tooth)" stroke="#d3dde5" stroke-width="2" transform="rotate(-130.8 465.7 251.4)"/><rect x="404.8" y="190.2" width="48.3" height="54.2" rx="20.1" fill="url(#tooth)" stroke="#d3dde5" stroke-width="2" transform="rotate(-143.6 429.0 217.3)"/><rect x="365.7" y="167.8" width="43.4" height="51.7" rx="18.1" fill="url(#tooth)" stroke="#d3dde5" stroke-width="2" transform="rotate(-157.5 387.4 193.6)"/><rect x="323.6" y="156.9" width="38.5" height="49.2" rx="16.0" fill="url(#tooth)" stroke="#d3dde5" stroke-width="2" transform="rotate(-172.4 342.8 181.5)"/><rect x="278.0" y="156.9" width="38.5" height="49.2" rx="16.0" fill="url(#tooth)" stroke="#d3dde5" stroke-width="2" transform="rotate(172.4 297.2 181.5)"/><rect x="230.9" y="167.8" width="43.4" height="51.7" rx="18.1" fill="url(#tooth)" stroke="#d3dde5" stroke-width="2" transform="rotate(157.5 252.6 193.6)"/><rect x="186.8" y="190.2" width="48.3" height="54.2" rx="20.1" fill="url(#tooth)" stroke="#d3dde5" stroke-width="2" transform="rotate(143.6 211.0 217.3)"/><rect x="147.7" y="223.1" width="53.2" height="56.6" rx="22.2" fill="url(#tooth)" stroke="#d3dde5" stroke-width="2" transform="rotate(130.8 174.3 251.4)"/><rect x="115.2" y="264.9" width="58.2" height="59.1" rx="24.2" fill="url(#tooth)" stroke="#d3dde5" stroke-width="2" transform="rotate(119.3 144.2 294.5)"/><rect x="90.5" y="313.8" width="63.1" height="61.5" rx="25.6" fill="url(#tooth)" stroke="#d3dde5" stroke-width="2" transform="rotate(108.7 122.1 344.6)"/><rect x="74.8" y="367.4" width="68.0" height="64.0" rx="26.7" fill="url(#tooth)" stroke="#d3dde5" stroke-width="2" transform="rotate(98.6 108.8 399.4)"/></g><rect x="490.2" y="360.4" width="82.0" height="78.0" rx="33.7" fill="#2fb7a0" fill-opacity=".10" stroke="#2fb7a0" stroke-opacity=".6" stroke-width="2.5" transform="rotate(-98.6 531.2 399.4)"/><rect x="479.4" y="306.8" width="77.1" height="75.5" rx="32.6" fill="#2fb7a0" fill-opacity=".10" stroke="#2fb7a0" stroke-opacity=".6" stroke-width="2.5" transform="rotate(-108.7 517.9 344.6)"/><rect x="459.7" y="257.9" width="72.2" height="73.1" rx="31.2" fill="#2fb7a0" fill-opacity=".10" stroke="#2fb7a0" stroke-opacity=".6" stroke-width="2.5" transform="rotate(-119.3 495.8 294.5)"/><rect x="432.0" y="216.1" width="67.2" height="70.6" rx="29.2" fill="#2fb7a0" fill-opacity=".10" stroke="#2fb7a0" stroke-opacity=".6" stroke-width="2.5" transform="rotate(-130.8 465.7 251.4)"/><rect x="397.8" y="183.2" width="62.3" height="68.2" rx="27.1" fill="#2fb7a0" fill-opacity=".10" stroke="#2fb7a0" stroke-opacity=".6" stroke-width="2.5" transform="rotate(-143.6 429.0 217.3)"/><rect x="358.7" y="160.8" width="57.4" height="65.7" rx="25.1" fill="#2fb7a0" fill-opacity=".10" stroke="#2fb7a0" stroke-opacity=".6" stroke-width="2.5" transform="rotate(-157.5 387.4 193.6)"/><rect x="316.6" y="149.9" width="52.5" height="63.2" rx="23.0" fill="#2fb7a0" fill-opacity=".10" stroke="#2fb7a0" stroke-opacity=".6" stroke-width="2.5" transform="rotate(-172.4 342.8 181.5)"/><rect x="271.0" y="149.9" width="52.5" height="63.2" rx="23.0" fill="#2fb7a0" fill-opacity=".10" stroke="#2fb7a0" stroke-opacity=".6" stroke-width="2.5" transform="rotate(172.4 297.2 181.5)"/><rect x="223.9" y="160.8" width="57.4" height="65.7" rx="25.1" fill="#2fb7a0" fill-opacity=".10" stroke="#2fb7a0" stroke-opacity=".6" stroke-width="2.5" transform="rotate(157.5 252.6 193.6)"/><rect x="179.8" y="183.2" width="62.3" height="68.2" rx="27.1" fill="#2fb7a0" fill-opacity=".10" stroke="#2fb7a0" stroke-opacity=".6" stroke-width="2.5" transform="rotate(143.6 211.0 217.3)"/><rect x="140.7" y="216.1" width="67.2" height="70.6" rx="29.2" fill="#2fb7a0" fill-opacity=".10" stroke="#2fb7a0" stroke-opacity=".6" stroke-width="2.5" transform="rotate(130.8 174.3 251.4)"/><rect x="108.2" y="257.9" width="72.2" height="73.1" rx="31.2" fill="#2fb7a0" fill-opacity=".10" stroke="#2fb7a0" stroke-opacity=".6" stroke-width="2.5" transform="rotate(119.3 144.2 294.5)"/><rect x="83.5" y="306.8" width="77.1" height="75.5" rx="32.6" fill="#2fb7a0" fill-opacity=".10" stroke="#2fb7a0" stroke-opacity=".6" stroke-width="2.5" transform="rotate(108.7 122.1 344.6)"/><rect x="67.8" y="360.4" width="82.0" height="78.0" rx="33.7" fill="#2fb7a0" fill-opacity=".10" stroke="#2fb7a0" stroke-opacity=".6" stroke-width="2.5" transform="rotate(98.6 108.8 399.4)"/></svg>